Coordinates
version=1
nRows=7
nColumns=63
inDegrees=yes

Units are S.I. units (second, meters, Newtons, ...)
If the header above contains a line with 'inDegrees', this indicates whether rotational values are in degrees (yes) or radians (no).

endheader
time	pelvis_tilt	pelvis_list	pelvis_rotation	pelvis_tx	pelvis_ty	pelvis_tz	hip_flexion_r	hip_adduction_r	hip_rotation_r	knee_angle_r	knee_angle_r_beta	ankle_angle_r	subtalar_angle_r	mtp_angle_r	hip_flexion_l	hip_adduction_l	hip_rotation_l	knee_angle_l	knee_angle_l_beta	ankle_angle_l	subtalar_angle_l	mtp_angle_l	L5_S1_Flex_Ext	L5_S1_Lat_Bending	L5_S1_axial_rotation	L4_L5_Flex_Ext	L4_L5_Lat_Bending	L4_L5_axial_rotation	L3_L4_Flex_Ext	L3_L4_Lat_Bending	L3_L4_axial_rotation	L2_L3_Flex_Ext	L2_L3_Lat_Bending	L2_L3_axial_rotation	L1_L2_Flex_Ext	L1_L2_Lat_Bending	L1_L2_axial_rotation	L1_T12_Flex_Ext	L1_T12_Lat_Bending	L1_T12_axial_rotation	Abs_r3	Abs_r2	Abs_r1	Abs_t1	Abs_t2	neck_flexion	neck_bending	neck_rotation	arm_flex_r	arm_add_r	arm_rot_r	elbow_flex_r	pro_sup_r	wrist_flex_r	wrist_dev_r	arm_flex_l	arm_add_l	arm_rot_l	elbow_flex_l	pro_sup_l	wrist_flex_l	wrist_dev_l
      1.94230769	    -12.15912620	    -11.08340037	     74.49422854	      0.26174059	      0.37927779	      0.90960346	      7.56200385	     -4.88105867	      4.93084002	      3.02482556	      0.05279317	     20.48130419	     -5.81964583	      0.00000000	     13.16537547	      3.34378317	    -16.00706130	     14.21261609	      0.24805695	     22.49544238	     16.51404611	      0.00000000	     -0.27355769	     -1.32299010	      0.96545050	     -0.50802398	     -1.75957684	      1.02579116	     -0.44942793	     -3.21671814	      1.02579116	     -0.31264908	     -3.21671814	      0.84476919	     -0.25402567	     -2.69784142	      0.78442853	     -0.15631086	     -2.04931167	      0.72408788	     -1.95399521	    -14.96592865	      5.36954605	      0.00000000	      0.00000000	      4.83875538	      1.36654954	     -8.62049056	     -5.57373813	    -16.72671793	     14.77261118	    114.94821646	     81.33202761	     13.96408315	     13.87359161	    -11.12767772	    -19.34845074	     13.33886844	     31.56744093	     85.77184611	    -13.87261668	     -3.65846546
      1.96153846	    -11.76048443	    -11.19249861	     73.58316372	      0.26058986	      0.37929332	      0.91186183	      8.11830654	     -4.41673256	      5.32110459	      3.45676099	      0.06033186	     20.41093183	     -5.31639496	      0.00000000	     13.36115781	      2.80795467	    -16.53038397	     14.38291994	      0.25102931	     22.37068275	     16.22323353	      0.00000000	     -0.27992551	     -1.22344356	      0.81302291	     -0.51984967	     -1.62717994	      0.86383684	     -0.45988962	     -2.97468068	      0.86383684	     -0.31992687	     -2.97468068	      0.71139505	     -0.25993883	     -2.49484611	      0.66058112	     -0.15994944	     -1.89511408	      0.60976718	     -1.99947994	    -13.83983828	      4.52178953	      0.00000000	      0.00000000	      6.63176669	     -0.28108473	     -8.90237595	     -4.67261228	    -17.75225446	     15.94579111	    110.94141566	     83.54797037	     18.40286262	     16.14365748	    -11.06304370	    -18.73957319	     14.92168390	     29.54377577	     84.39367795	    -13.50829369	     -3.40625203
      1.98076923	    -11.44609536	    -11.17121099	     72.69243937	      0.25970155	      0.37941018	      0.91427845	      8.60520428	     -4.04722001	      5.54220048	      4.04151523	      0.07053775	     20.45763782	     -4.70736437	      0.00000000	     13.46461413	      2.37979763	    -17.02873773	     14.56045798	      0.25412793	     22.39299350	     15.93699146	      0.00000000	     -0.29150943	     -1.14098819	      0.67509316	     -0.54136216	     -1.51751430	      0.71728649	     -0.47892084	     -2.77419869	      0.71728649	     -0.33316613	     -2.77419869	      0.59070652	     -0.27069566	     -2.32670312	      0.54851320	     -0.16656849	     -1.76739071	      0.50631987	     -2.08222270	    -12.90708662	      3.75466566	      0.00000000	      0.00000000	      8.21256386	     -1.68473593	     -9.63246781	     -3.19197252	    -18.71733968	     17.47322799	    106.35222370	     86.04921125	     21.85696108	     19.44597959	    -10.94660995	    -18.32893161	     17.77401093	     27.24552936	     83.04821423	    -12.54016746	     -2.85102998
      2.00000000	    -11.31501919	    -11.17262641	     71.89608639	      0.25916874	      0.37953250	      0.91686632	      9.26170733	     -3.94105526	      2.86942450	      4.90310973	      0.08557541	     21.42569646	     -0.31254145	      0.00000000	     13.64293720	      2.10700091	    -17.53567096	     14.68387638	      0.25628199	     22.51286663	     15.88195067	      0.00000000	     -0.27426122	     -1.09240617	      0.63047814	     -0.50933051	     -1.45290021	      0.66988302	     -0.45058376	     -2.65607637	      0.66988302	     -0.31345315	     -2.65607637	      0.55166837	     -0.25467897	     -2.22763467	      0.51226349	     -0.15671286	     -1.69213716	      0.47285860	     -1.95902046	    -12.35751711	      3.50653026	      0.00000000	      0.00000000	      9.17032099	     -2.07541704	    -11.44653266	     -1.57332253	    -19.13468298	     18.62696364	    101.04442710	     87.33952919	     24.95291492	     24.20043456	     -9.09237883	    -19.30494420	     33.65706946	     23.56620253	     67.22928062	    -13.03132208	     -5.01605887
      2.01923077	    -11.19190479	    -10.90927617	     71.37702418	      0.25893548	      0.37978568	      0.91947546	      9.53345997	     -3.87218550	      1.62467442	      5.66102172	      0.09880347	     21.74910457	      1.42933370	      0.00000000	     13.58135132	      1.95900134	    -17.70232283	     14.80760354	      0.25844144	     22.81462626	     15.76981172	      0.00000000	     -0.28474156	     -1.06554875	      0.50256156	     -0.52879355	     -1.41717984	      0.53397166	     -0.46780191	     -2.59077524	      0.53397166	     -0.32543113	     -2.59077524	      0.43974137	     -0.26441101	     -2.17286702	      0.40833127	     -0.16270133	     -1.65053502	      0.37692117	     -2.03388048	    -12.05370063	      2.79509664	      0.00000000	      0.00000000	      9.73871957	     -2.02328517	    -13.16809799	      0.72920023	    -19.31660223	     20.90181583	     95.13747408	     88.06703587	     24.38186510	     28.11617251	     -6.88970371	    -19.70151078	     52.87906785	     20.06170769	     48.98245513	    -11.86542598	     -7.07560252
      2.03846154	    -10.79915092	    -10.65917248	     71.23572476	      0.25786965	      0.38033221	      0.92123648	      9.48081178	     -3.57084183	      1.11309694	      6.13134913	      0.10701223	     21.51626666	      1.47798631	      0.00000000	     13.44683040	      1.67104359	    -17.44342836	     14.92995780	      0.26057692	     23.20178099	     15.60373543	      0.00000000	     -0.29875849	     -1.00325953	      0.31456767	     -0.55482438	     -1.33433518	      0.33422815	     -0.49083032	     -2.43932523	      0.33422815	     -0.34145107	     -2.43932523	      0.27524671	     -0.27742713	     -2.04584684	      0.25558623	     -0.17071060	     -1.55404902	      0.23592575	     -2.13400199	    -11.34907250	      1.74953103	      0.00000000	      0.00000000	      9.64287334	     -1.70199298	    -14.56184651	      3.15381823	    -19.52913954	     23.77953630	     89.01542299	     88.51256214	     20.93246876	     29.59677556	     -1.75511775	    -16.59390808	    109.05878656	     10.23643096	      4.68876918	     -5.04772975	    -11.93217114
      2.05769231	    -10.88603545	    -10.36992301	     70.98257196	      0.25839405	      0.38018136	      0.92335590	      9.58021746	     -3.65608241	      0.77811417	      6.67018321	      0.11641666	     21.53482058	      1.39335019	      0.00000000	     13.42778298	      1.72876764	    -17.35422896	     15.11321587	      0.26377538	     23.66217896	     15.55517454	      0.00000000	     -0.31004281	     -1.02215210	      0.14274580	     -0.57578050	     -1.35946229	      0.15166742	     -0.50936933	     -2.48526061	      0.15166742	     -0.35434793	     -2.48526061	      0.12490258	     -0.28790575	     -2.08437256	      0.11598097	     -0.17715846	     -1.58331360	      0.10705935	     -2.21460479	    -11.56278896	      0.79390934	      0.00000000	      0.00000000	      9.32352869	     -0.99470598	    -16.52717487	      5.39640257	    -18.78960370	     26.19848504	     82.91218406	     88.75448329	     17.82969473	     29.51165800	     -1.76000184	    -16.85921296	    109.70465152	     10.85669225	      5.16224878	     -4.33450804	    -10.35309619
